# xmcd
# Copyright (C) 1995-1998 Ti Kan
#
# Track frame offsets:
#       150
#       21693
#       43509
#       64115
#       80882
#       95752
#       114316
#       136959
#       155420
#       162517
#       187797
#       204787
#
# Disc length: 3025 seconds
#
# Revision: 0
# Processed by: cddbd v1.5.2PL0 Copyright (c) Steve Scherf et al.
# Submitted via: CD-Import v1.0
#
DISCID=a00bcf0c
DTITLE=Tomatíto - Anthology
DYEAR=1900
DGENRE=
TTITLE0=Soy Fragüero
TTITLE1=Paseo De Los Casteños
TTITLE2=Pa La Pimpi
TTITLE3=Pa Salinas
TTITLE4=Manduka
TTITLE5=Gallibando
TTITLE6=En Casa Del Herrero
TTITLE7=Alquimia
TTITLE8=Aire De Tango
TTITLE9=Ahí Te Quedas
TTITLE10=A Miles
TTITLE11=Donde Está Tu Cariño
EXTD=
EXTT0=
EXTT1=
EXTT2=
EXTT3=
EXTT4=
EXTT5=
EXTT6=
EXTT7=
EXTT8=
EXTT9=
EXTT10=
EXTT11=
PLAYORDER=
